<?xml version="1.0" encoding="UTF-8" standalone="no"?>
<!DOCTYPE svg PUBLIC "-//W3C//DTD SVG 1.1//EN"
 "http://www.w3.org/Graphics/SVG/1.1/DTD/svg11.dtd">
<!-- Generated by graphviz version 2.38.0 (20140413.2041)
 -->
<!-- Title: ewGx4nabHaX5DBHw3JzL7T6Li_mQKv3X4mcanbyD0AM00000af5 Pages: 1 -->
<svg width="625pt" height="495pt"
 viewBox="0.00 0.00 624.50 495.00" xmlns="http://www.w3.org/2000/svg" xmlns:xlink="http://www.w3.org/1999/xlink">
<g id="graph0" class="graph" transform="scale(1 1) rotate(0) translate(4 491)">
<title>ewGx4nabHaX5DBHw3JzL7T6Li_mQKv3X4mcanbyD0AM00000af5</title>
<polygon fill="white" stroke="none" points="-4,4 -4,-491 620.5,-491 620.5,4 -4,4"/>
<!-- hello\n(stripped) -->
<g id="node1" class="node"><title>hello\n(stripped)</title>
<path fill="gold" stroke="black" d="M366.5,-47C366.5,-47 285.5,-47 285.5,-47 279.5,-47 273.5,-41 273.5,-35 273.5,-35 273.5,-12 273.5,-12 273.5,-6 279.5,-0 285.5,-0 285.5,-0 366.5,-0 366.5,-0 372.5,-0 378.5,-6 378.5,-12 378.5,-12 378.5,-35 378.5,-35 378.5,-41 372.5,-47 366.5,-47"/>
<text text-anchor="start" x="297.5" y="-26.6" font-family="SF Mono" font-weight="bold" font-size="18.00">hello</text>
<text text-anchor="start" x="280.5" y="-11" font-family="SF Mono" font-size="15.00">(stripped)</text>
</g>
<!-- libc -->
<g id="node2" class="node"><title>libc</title>
<polygon fill="none" stroke="black" points="243,-199 181,-199 181,-195 177,-195 177,-191 181,-191 181,-171 177,-171 177,-167 181,-167 181,-163 243,-163 243,-199"/>
<polyline fill="none" stroke="black" points="181,-195 185,-195 185,-191 181,-191 "/>
<polyline fill="none" stroke="black" points="181,-171 185,-171 185,-167 181,-167 "/>
<text text-anchor="middle" x="212" y="-176.6" font-family="SF Mono" font-size="18.00">libc</text>
</g>
<!-- hello -->
<g id="node3" class="node"><title>hello</title>
<polygon fill="none" stroke="black" points="368.5,-123 283.5,-123 283.5,-87 368.5,-87 368.5,-123"/>
<polygon fill="none" stroke="black" points="372.5,-127 279.5,-127 279.5,-83 372.5,-83 372.5,-127"/>
<text text-anchor="middle" x="326" y="-100.6" font-family="SF Mono" font-size="18.00">hello</text>
</g>
<!-- libc&#45;&gt;hello -->
<g id="edge1" class="edge"><title>libc&#45;&gt;hello</title>
<path fill="none" stroke="black" d="M238.44,-162.837C252.315,-153.831 269.619,-142.598 285.172,-132.503"/>
<polygon fill="black" stroke="black" points="293.599,-127.032 287.661,-136.251 289.405,-129.755 285.211,-132.477 285.211,-132.477 285.211,-132.477 289.405,-129.755 282.761,-128.702 293.599,-127.032 293.599,-127.032"/>
</g>
<!-- hello&#45;&gt;hello\n(stripped) -->
<g id="edge2" class="edge"><title>hello&#45;&gt;hello\n(stripped)</title>
<path fill="none" stroke="black" d="M326,-82.6955C326,-74.9132 326,-65.9188 326,-57.3635"/>
<polygon fill="black" stroke="black" points="326,-47.2566 330.5,-57.2565 326,-52.2566 326,-57.2566 326,-57.2566 326,-57.2566 326,-52.2566 321.5,-57.2566 326,-47.2566 326,-47.2566"/>
</g>
<!-- libhello.a -->
<g id="node4" class="node"><title>libhello.a</title>
<polygon fill="none" stroke="black" points="390.5,-199 387.5,-203 366.5,-203 363.5,-199 261.5,-199 261.5,-163 390.5,-163 390.5,-199"/>
<text text-anchor="middle" x="326" y="-176.6" font-family="SF Mono" font-size="18.00">libhello.a</text>
</g>
<!-- libhello.a&#45;&gt;hello -->
<g id="edge8" class="edge"><title>libhello.a&#45;&gt;hello</title>
<path fill="none" stroke="black" d="M326,-162.837C326,-155.165 326,-145.878 326,-137.053"/>
<polygon fill="black" stroke="black" points="326,-127.032 330.5,-137.032 326,-132.032 326,-137.032 326,-137.032 326,-137.032 326,-132.032 321.5,-137.032 326,-127.032 326,-127.032"/>
</g>
<!-- hello.c -->
<g id="node5" class="node"><title>hello.c</title>
<polygon fill="lightblue" stroke="none" points="616.5,-487 521.5,-487 521.5,-451 616.5,-451 616.5,-487"/>
<polyline fill="none" stroke="black" points="521.5,-451 616.5,-451 "/>
<text text-anchor="middle" x="569" y="-464.6" font-family="SF Mono" font-size="18.00">hello.c</text>
</g>
<!-- hello.i -->
<g id="node12" class="node"><title>hello.i</title>
<polygon fill="none" stroke="black" points="503.5,-415 408.5,-415 408.5,-379 503.5,-379 503.5,-415"/>
<text text-anchor="middle" x="456" y="-392.6" font-family="SF Mono" font-size="18.00">hello.i</text>
</g>
<!-- hello.c&#45;&gt;hello.i -->
<g id="edge6" class="edge"><title>hello.c&#45;&gt;hello.i</title>
<path fill="none" stroke="black" d="M541.357,-450.876C526.582,-441.724 508.209,-430.342 492.297,-420.485"/>
<polygon fill="black" stroke="black" points="483.749,-415.19 494.62,-416.63 488,-417.823 492.25,-420.456 492.25,-420.456 492.25,-420.456 488,-417.823 489.88,-424.281 483.749,-415.19 483.749,-415.19"/>
</g>
<!-- dirname.c -->
<g id="node6" class="node"><title>dirname.c</title>
<polygon fill="lightblue" stroke="none" points="118,-487 0,-487 0,-451 118,-451 118,-487"/>
<polyline fill="none" stroke="black" points="0,-451 118,-451 "/>
<text text-anchor="middle" x="59" y="-464.6" font-family="SF Mono" font-size="18.00">dirname.c</text>
</g>
<!-- dirname.i -->
<g id="node18" class="node"><title>dirname.i</title>
<polygon fill="none" stroke="black" points="243,-415 125,-415 125,-379 243,-379 243,-415"/>
<text text-anchor="middle" x="184" y="-392.6" font-family="SF Mono" font-size="18.00">dirname.i</text>
</g>
<!-- dirname.c&#45;&gt;dirname.i -->
<g id="edge18" class="edge"><title>dirname.c&#45;&gt;dirname.i</title>
<path fill="none" stroke="black" d="M89.5784,-450.876C106.074,-441.639 126.624,-430.131 144.336,-420.212"/>
<polygon fill="black" stroke="black" points="153.304,-415.19 146.778,-424.002 148.941,-417.633 144.579,-420.076 144.579,-420.076 144.579,-420.076 148.941,-417.633 142.38,-416.15 153.304,-415.19 153.304,-415.19"/>
</g>
<!-- closeout.c -->
<g id="node7" class="node"><title>closeout.c</title>
<polygon fill="lightblue" stroke="none" points="390.5,-487 261.5,-487 261.5,-451 390.5,-451 390.5,-487"/>
<polyline fill="none" stroke="black" points="261.5,-451 390.5,-451 "/>
<text text-anchor="middle" x="326" y="-464.6" font-family="SF Mono" font-size="18.00">closeout.c</text>
</g>
<!-- closeout.i -->
<g id="node15" class="node"><title>closeout.i</title>
<polygon fill="none" stroke="black" points="390.5,-415 261.5,-415 261.5,-379 390.5,-379 390.5,-415"/>
<text text-anchor="middle" x="326" y="-392.6" font-family="SF Mono" font-size="18.00">closeout.i</text>
</g>
<!-- closeout.c&#45;&gt;closeout.i -->
<g id="edge12" class="edge"><title>closeout.c&#45;&gt;closeout.i</title>
<path fill="none" stroke="black" d="M326,-450.697C326,-442.983 326,-433.712 326,-425.112"/>
<polygon fill="black" stroke="black" points="326,-415.104 330.5,-425.104 326,-420.104 326,-425.104 326,-425.104 326,-425.104 326,-420.104 321.5,-425.104 326,-415.104 326,-415.104"/>
</g>
<!-- string.h -->
<g id="node8" class="node"><title>string.h</title>
<polygon fill="#e5e5e5" stroke="none" points="243.5,-487 136.5,-487 136.5,-451 243.5,-451 243.5,-487"/>
<polyline fill="none" stroke="black" points="136.5,-451 243.5,-451 "/>
<text text-anchor="middle" x="190" y="-464.6" font-family="SF Mono" font-size="18.00">string.h</text>
</g>
<!-- string.h&#45;&gt;closeout.i -->
<g id="edge14" class="edge"><title>string.h&#45;&gt;closeout.i</title>
<path fill="none" stroke="black" d="M223.269,-450.876C241.463,-441.512 264.191,-429.814 283.64,-419.803"/>
<polygon fill="black" stroke="black" points="292.603,-415.19 285.771,-423.767 288.157,-417.478 283.711,-419.766 283.711,-419.766 283.711,-419.766 288.157,-417.478 281.652,-415.765 292.603,-415.19 292.603,-415.19"/>
</g>
<!-- string.h&#45;&gt;dirname.i -->
<g id="edge19" class="edge"><title>string.h&#45;&gt;dirname.i</title>
<path fill="none" stroke="black" d="M188.517,-450.697C187.856,-442.983 187.061,-433.712 186.324,-425.112"/>
<polygon fill="black" stroke="black" points="185.466,-415.104 190.804,-424.683 185.893,-420.086 186.32,-425.068 186.32,-425.068 186.32,-425.068 185.893,-420.086 181.837,-425.452 185.466,-415.104 185.466,-415.104"/>
</g>
<!-- stdio.h -->
<g id="node9" class="node"><title>stdio.h</title>
<polygon fill="#e5e5e5" stroke="none" points="503.5,-487 408.5,-487 408.5,-451 503.5,-451 503.5,-487"/>
<polyline fill="none" stroke="black" points="408.5,-451 503.5,-451 "/>
<text text-anchor="middle" x="456" y="-464.6" font-family="SF Mono" font-size="18.00">stdio.h</text>
</g>
<!-- stdio.h&#45;&gt;hello.i -->
<g id="edge7" class="edge"><title>stdio.h&#45;&gt;hello.i</title>
<path fill="none" stroke="black" d="M456,-450.697C456,-442.983 456,-433.712 456,-425.112"/>
<polygon fill="black" stroke="black" points="456,-415.104 460.5,-425.104 456,-420.104 456,-425.104 456,-425.104 456,-425.104 456,-420.104 451.5,-425.104 456,-415.104 456,-415.104"/>
</g>
<!-- stdio.h&#45;&gt;closeout.i -->
<g id="edge13" class="edge"><title>stdio.h&#45;&gt;closeout.i</title>
<path fill="none" stroke="black" d="M424.198,-450.876C406.886,-441.554 385.279,-429.919 366.744,-419.939"/>
<polygon fill="black" stroke="black" points="357.924,-415.19 368.862,-415.969 362.326,-417.56 366.729,-419.931 366.729,-419.931 366.729,-419.931 362.326,-417.56 364.595,-423.893 357.924,-415.19 357.924,-415.19"/>
</g>
<!-- hello.o -->
<g id="node10" class="node"><title>hello.o</title>
<polygon fill="none" stroke="black" points="503.5,-199 408.5,-199 408.5,-163 503.5,-163 503.5,-199"/>
<text text-anchor="middle" x="456" y="-176.6" font-family="SF Mono" font-size="18.00">hello.o</text>
</g>
<!-- hello.o&#45;&gt;hello -->
<g id="edge3" class="edge"><title>hello.o&#45;&gt;hello</title>
<path fill="none" stroke="black" d="M425.849,-162.837C409.88,-153.747 389.929,-142.39 372.066,-132.222"/>
<polygon fill="black" stroke="black" points="362.948,-127.032 373.865,-128.068 367.294,-129.506 371.639,-131.979 371.639,-131.979 371.639,-131.979 367.294,-129.506 369.413,-135.89 362.948,-127.032 362.948,-127.032"/>
</g>
<!-- hello.s -->
<g id="node11" class="node"><title>hello.s</title>
<polygon fill="none" stroke="black" points="503.5,-343 408.5,-343 408.5,-307 503.5,-307 503.5,-343"/>
<text text-anchor="middle" x="456" y="-320.6" font-family="SF Mono" font-size="18.00">hello.s</text>
</g>
<!-- hello.s&#45;&gt;hello.o -->
<g id="edge4" class="edge"><title>hello.s&#45;&gt;hello.o</title>
<path fill="none" stroke="black" d="M456,-306.871C456,-282.67 456,-238.211 456,-209.393"/>
<polygon fill="black" stroke="black" points="456,-199.189 460.5,-209.189 456,-204.189 456,-209.189 456,-209.189 456,-209.189 456,-204.189 451.5,-209.189 456,-199.189 456,-199.189"/>
</g>
<!-- hello.i&#45;&gt;hello.s -->
<g id="edge5" class="edge"><title>hello.i&#45;&gt;hello.s</title>
<path fill="none" stroke="black" d="M456,-378.697C456,-370.983 456,-361.712 456,-353.112"/>
<polygon fill="black" stroke="black" points="456,-343.104 460.5,-353.104 456,-348.104 456,-353.104 456,-353.104 456,-353.104 456,-348.104 451.5,-353.104 456,-343.104 456,-343.104"/>
</g>
<!-- closeout.o -->
<g id="node13" class="node"><title>closeout.o</title>
<polygon fill="none" stroke="black" points="390.5,-271 261.5,-271 261.5,-235 390.5,-235 390.5,-271"/>
<text text-anchor="middle" x="326" y="-248.6" font-family="SF Mono" font-size="18.00">closeout.o</text>
</g>
<!-- closeout.o&#45;&gt;libhello.a -->
<g id="edge9" class="edge"><title>closeout.o&#45;&gt;libhello.a</title>
<path fill="none" stroke="black" d="M326,-234.697C326,-226.983 326,-217.712 326,-209.112"/>
<polygon fill="black" stroke="black" points="326,-199.104 330.5,-209.104 326,-204.104 326,-209.104 326,-209.104 326,-209.104 326,-204.104 321.5,-209.104 326,-199.104 326,-199.104"/>
</g>
<!-- closeout.s -->
<g id="node14" class="node"><title>closeout.s</title>
<polygon fill="none" stroke="black" points="390.5,-343 261.5,-343 261.5,-307 390.5,-307 390.5,-343"/>
<text text-anchor="middle" x="326" y="-320.6" font-family="SF Mono" font-size="18.00">closeout.s</text>
</g>
<!-- closeout.s&#45;&gt;closeout.o -->
<g id="edge10" class="edge"><title>closeout.s&#45;&gt;closeout.o</title>
<path fill="none" stroke="black" d="M326,-306.697C326,-298.983 326,-289.712 326,-281.112"/>
<polygon fill="black" stroke="black" points="326,-271.104 330.5,-281.104 326,-276.104 326,-281.104 326,-281.104 326,-281.104 326,-276.104 321.5,-281.104 326,-271.104 326,-271.104"/>
</g>
<!-- closeout.i&#45;&gt;closeout.s -->
<g id="edge11" class="edge"><title>closeout.i&#45;&gt;closeout.s</title>
<path fill="none" stroke="black" d="M326,-378.697C326,-370.983 326,-361.712 326,-353.112"/>
<polygon fill="black" stroke="black" points="326,-343.104 330.5,-353.104 326,-348.104 326,-353.104 326,-353.104 326,-353.104 326,-348.104 321.5,-353.104 326,-343.104 326,-343.104"/>
</g>
<!-- dirname.o -->
<g id="node16" class="node"><title>dirname.o</title>
<polygon fill="none" stroke="black" points="243,-271 125,-271 125,-235 243,-235 243,-271"/>
<text text-anchor="middle" x="184" y="-248.6" font-family="SF Mono" font-size="18.00">dirname.o</text>
</g>
<!-- dirname.o&#45;&gt;libhello.a -->
<g id="edge15" class="edge"><title>dirname.o&#45;&gt;libhello.a</title>
<path fill="none" stroke="black" d="M218.737,-234.876C237.819,-225.469 261.679,-213.708 282.047,-203.667"/>
<polygon fill="black" stroke="black" points="291.129,-199.19 284.15,-207.648 286.645,-201.401 282.16,-203.611 282.16,-203.611 282.16,-203.611 286.645,-201.401 280.17,-199.575 291.129,-199.19 291.129,-199.19"/>
</g>
<!-- dirname.s -->
<g id="node17" class="node"><title>dirname.s</title>
<polygon fill="none" stroke="black" points="243,-343 125,-343 125,-307 243,-307 243,-343"/>
<text text-anchor="middle" x="184" y="-320.6" font-family="SF Mono" font-size="18.00">dirname.s</text>
</g>
<!-- dirname.s&#45;&gt;dirname.o -->
<g id="edge16" class="edge"><title>dirname.s&#45;&gt;dirname.o</title>
<path fill="none" stroke="black" d="M184,-306.697C184,-298.983 184,-289.712 184,-281.112"/>
<polygon fill="black" stroke="black" points="184,-271.104 188.5,-281.104 184,-276.104 184,-281.104 184,-281.104 184,-281.104 184,-276.104 179.5,-281.104 184,-271.104 184,-271.104"/>
</g>
<!-- dirname.i&#45;&gt;dirname.s -->
<g id="edge17" class="edge"><title>dirname.i&#45;&gt;dirname.s</title>
<path fill="none" stroke="black" d="M184,-378.697C184,-370.983 184,-361.712 184,-353.112"/>
<polygon fill="black" stroke="black" points="184,-343.104 188.5,-353.104 184,-348.104 184,-353.104 184,-353.104 184,-353.104 184,-348.104 179.5,-353.104 184,-343.104 184,-343.104"/>
</g>
</g>
</svg>
