<?xml version="1.0" encoding="UTF-8" standalone="no"?>
<!DOCTYPE svg PUBLIC "-//W3C//DTD SVG 1.1//EN"
 "http://www.w3.org/Graphics/SVG/1.1/DTD/svg11.dtd">
<!-- Generated by graphviz version 2.38.0 (20140413.2041)
 -->
<!-- Title: ExCamera Pages: 1 -->
<svg width="934pt" height="336pt"
 viewBox="0.00 0.00 934.00 336.00" xmlns="http://www.w3.org/2000/svg" xmlns:xlink="http://www.w3.org/1999/xlink">
<g id="graph0" class="graph" transform="scale(1 1) rotate(0) translate(4 332)">
<title>ExCamera</title>
<polygon fill="white" stroke="none" points="-4,4 -4,-332 930,-332 930,4 -4,4"/>
<!-- 1.raw -->
<g id="node1" class="node"><title>1.raw</title>
<polygon fill="#d9d9d9" stroke="none" points="90.5,-274 13.5,-274 13.5,-238 90.5,-238 90.5,-274"/>
<polyline fill="none" stroke="black" points="13.5,-238 90.5,-238 "/>
<text text-anchor="middle" x="52" y="-252.2" font-family="SF Mono" font-size="16.00">1.raw</text>
</g>
<!--  1.vp8  -->
<g id="node5" class="node"><title> 1.vp8 </title>
<path fill="lightskyblue" stroke="black" stroke-width="2" d="M199,-274C199,-274 138,-274 138,-274 132,-274 126,-268 126,-262 126,-262 126,-250 126,-250 126,-244 132,-238 138,-238 138,-238 199,-238 199,-238 205,-238 211,-244 211,-250 211,-250 211,-262 211,-262 211,-268 205,-274 199,-274"/>
<text text-anchor="middle" x="168.5" y="-252.2" font-family="SF Mono" font-size="16.00"> 1.vp8 </text>
</g>
<!-- 1.raw&#45;&gt; 1.vp8  -->
<g id="edge7" class="edge"><title>1.raw&#45;&gt; 1.vp8 </title>
<path fill="none" stroke="black" d="M90.8089,-256C98.7742,-256 107.309,-256 115.688,-256"/>
<polygon fill="black" stroke="black" points="125.781,-256 115.781,-260.5 120.781,-256 115.781,-256 115.781,-256 115.781,-256 120.781,-256 115.781,-251.5 125.781,-256 125.781,-256"/>
</g>
<!-- 2.raw -->
<g id="node2" class="node"><title>2.raw</title>
<polygon fill="#d9d9d9" stroke="none" points="90.5,-220 13.5,-220 13.5,-184 90.5,-184 90.5,-220"/>
<polyline fill="none" stroke="black" points="13.5,-184 90.5,-184 "/>
<text text-anchor="middle" x="52" y="-198.2" font-family="SF Mono" font-size="16.00">2.raw</text>
</g>
<!-- 2&#45;0.vp8 -->
<g id="node6" class="node"><title>2&#45;0.vp8</title>
<polygon fill="lightskyblue" stroke="black" points="211,-220 126,-220 126,-184 211,-184 211,-220"/>
<text text-anchor="middle" x="168.5" y="-198.2" font-family="SF Mono" font-size="16.00">2&#45;0.vp8</text>
</g>
<!-- 2.raw&#45;&gt;2&#45;0.vp8 -->
<g id="edge8" class="edge"><title>2.raw&#45;&gt;2&#45;0.vp8</title>
<path fill="none" stroke="black" d="M90.8089,-202C98.7742,-202 107.309,-202 115.688,-202"/>
<polygon fill="black" stroke="black" points="125.781,-202 115.781,-206.5 120.781,-202 115.781,-202 115.781,-202 115.781,-202 120.781,-202 115.781,-197.5 125.781,-202 125.781,-202"/>
</g>
<!-- 3.raw -->
<g id="node3" class="node"><title>3.raw</title>
<polygon fill="#d9d9d9" stroke="none" points="90.5,-128 13.5,-128 13.5,-92 90.5,-92 90.5,-128"/>
<polyline fill="none" stroke="black" points="13.5,-92 90.5,-92 "/>
<text text-anchor="middle" x="52" y="-106.2" font-family="SF Mono" font-size="16.00">3.raw</text>
</g>
<!-- 3&#45;0.vp8 -->
<g id="node7" class="node"><title>3&#45;0.vp8</title>
<polygon fill="lightskyblue" stroke="black" points="211,-128 126,-128 126,-92 211,-92 211,-128"/>
<text text-anchor="middle" x="168.5" y="-106.2" font-family="SF Mono" font-size="16.00">3&#45;0.vp8</text>
</g>
<!-- 3.raw&#45;&gt;3&#45;0.vp8 -->
<g id="edge9" class="edge"><title>3.raw&#45;&gt;3&#45;0.vp8</title>
<path fill="none" stroke="black" d="M90.8089,-110C98.7742,-110 107.309,-110 115.688,-110"/>
<polygon fill="black" stroke="black" points="125.781,-110 115.781,-114.5 120.781,-110 115.781,-110 115.781,-110 115.781,-110 120.781,-110 115.781,-105.5 125.781,-110 125.781,-110"/>
</g>
<!-- 4.raw -->
<g id="node4" class="node"><title>4.raw</title>
<polygon fill="#d9d9d9" stroke="none" points="90.5,-36 13.5,-36 13.5,-0 90.5,-0 90.5,-36"/>
<polyline fill="none" stroke="black" points="13.5,-0 90.5,-0 "/>
<text text-anchor="middle" x="52" y="-14.2" font-family="SF Mono" font-size="16.00">4.raw</text>
</g>
<!-- 4&#45;0.vp8 -->
<g id="node8" class="node"><title>4&#45;0.vp8</title>
<polygon fill="lightskyblue" stroke="black" points="211,-36 126,-36 126,-0 211,-0 211,-36"/>
<text text-anchor="middle" x="168.5" y="-14.2" font-family="SF Mono" font-size="16.00">4&#45;0.vp8</text>
</g>
<!-- 4.raw&#45;&gt;4&#45;0.vp8 -->
<g id="edge10" class="edge"><title>4.raw&#45;&gt;4&#45;0.vp8</title>
<path fill="none" stroke="black" d="M90.8089,-18C98.7742,-18 107.309,-18 115.688,-18"/>
<polygon fill="black" stroke="black" points="125.781,-18 115.781,-22.5001 120.781,-18 115.781,-18.0001 115.781,-18.0001 115.781,-18.0001 120.781,-18 115.781,-13.5001 125.781,-18 125.781,-18"/>
</g>
<!-- 1&#45;0.state -->
<g id="node9" class="node"><title>1&#45;0.state</title>
<polygon fill="#9acd32" stroke="black" points="337,-274 233,-274 233,-238 337,-238 337,-274"/>
<text text-anchor="middle" x="285" y="-252.2" font-family="SF Mono" font-size="16.00">1&#45;0.state</text>
</g>
<!--  1.vp8 &#45;&gt;1&#45;0.state -->
<g id="edge11" class="edge"><title> 1.vp8 &#45;&gt;1&#45;0.state</title>
<path fill="none" stroke="black" d="M211.161,-256C214.898,-256 218.73,-256 222.588,-256"/>
<polygon fill="black" stroke="black" points="232.811,-256 222.811,-260.5 227.811,-256 222.811,-256 222.811,-256 222.811,-256 227.811,-256 222.811,-251.5 232.811,-256 232.811,-256"/>
</g>
<!-- 2&#45;0.state -->
<g id="node10" class="node"><title>2&#45;0.state</title>
<polygon fill="#9acd32" stroke="black" points="337,-174 233,-174 233,-138 337,-138 337,-174"/>
<text text-anchor="middle" x="285" y="-152.2" font-family="SF Mono" font-size="16.00">2&#45;0.state</text>
</g>
<!-- 2&#45;0.vp8&#45;&gt;2&#45;0.state -->
<g id="edge12" class="edge"><title>2&#45;0.vp8&#45;&gt;2&#45;0.state</title>
<path fill="none" stroke="black" d="M211.161,-185.263C217.12,-182.869 223.322,-180.377 229.482,-177.902"/>
<polygon fill="black" stroke="black" points="239.087,-174.044 231.485,-181.947 234.447,-175.908 229.808,-177.772 229.808,-177.772 229.808,-177.772 234.447,-175.908 228.13,-173.596 239.087,-174.044 239.087,-174.044"/>
</g>
<!--  2.vp8  -->
<g id="node14" class="node"><title> 2.vp8 </title>
<path fill="#ee6363" stroke="black" stroke-width="2" d="M432,-220C432,-220 371,-220 371,-220 365,-220 359,-214 359,-208 359,-208 359,-196 359,-196 359,-190 365,-184 371,-184 371,-184 432,-184 432,-184 438,-184 444,-190 444,-196 444,-196 444,-208 444,-208 444,-214 438,-220 432,-220"/>
<text text-anchor="middle" x="401.5" y="-198.2" font-family="SF Mono" font-size="16.00"> 2.vp8 </text>
</g>
<!-- 2&#45;0.vp8&#45;&gt; 2.vp8  -->
<g id="edge14" class="edge"><title>2&#45;0.vp8&#45;&gt; 2.vp8 </title>
<path fill="none" stroke="black" d="M211.065,-202C249.624,-202 307.148,-202 348.685,-202"/>
<polygon fill="black" stroke="black" points="358.88,-202 348.88,-206.5 353.88,-202 348.88,-202 348.88,-202 348.88,-202 353.88,-202 348.88,-197.5 358.88,-202 358.88,-202"/>
</g>
<!-- 3&#45;0.state -->
<g id="node11" class="node"><title>3&#45;0.state</title>
<polygon fill="#9acd32" stroke="black" points="337,-82 233,-82 233,-46 337,-46 337,-82"/>
<text text-anchor="middle" x="285" y="-60.2" font-family="SF Mono" font-size="16.00">3&#45;0.state</text>
</g>
<!-- 3&#45;0.vp8&#45;&gt;3&#45;0.state -->
<g id="edge13" class="edge"><title>3&#45;0.vp8&#45;&gt;3&#45;0.state</title>
<path fill="none" stroke="black" d="M211.161,-93.2628C217.12,-90.869 223.322,-88.3771 229.482,-85.9023"/>
<polygon fill="black" stroke="black" points="239.087,-82.0438 231.485,-89.9473 234.447,-83.9077 229.808,-85.7717 229.808,-85.7717 229.808,-85.7717 234.447,-83.9077 228.13,-81.5961 239.087,-82.0438 239.087,-82.0438"/>
</g>
<!-- 3&#45;1.vp8 -->
<g id="node15" class="node"><title>3&#45;1.vp8</title>
<polygon fill="#ee6363" stroke="black" points="444,-128 359,-128 359,-92 444,-92 444,-128"/>
<text text-anchor="middle" x="401.5" y="-106.2" font-family="SF Mono" font-size="16.00">3&#45;1.vp8</text>
</g>
<!-- 3&#45;0.vp8&#45;&gt;3&#45;1.vp8 -->
<g id="edge16" class="edge"><title>3&#45;0.vp8&#45;&gt;3&#45;1.vp8</title>
<path fill="none" stroke="black" d="M211.065,-110C249.624,-110 307.148,-110 348.685,-110"/>
<polygon fill="black" stroke="black" points="358.88,-110 348.88,-114.5 353.88,-110 348.88,-110 348.88,-110 348.88,-110 353.88,-110 348.88,-105.5 358.88,-110 358.88,-110"/>
</g>
<!-- 4&#45;1.vp8 -->
<g id="node16" class="node"><title>4&#45;1.vp8</title>
<polygon fill="#ee6363" stroke="black" points="444,-36 359,-36 359,-0 444,-0 444,-36"/>
<text text-anchor="middle" x="401.5" y="-14.2" font-family="SF Mono" font-size="16.00">4&#45;1.vp8</text>
</g>
<!-- 4&#45;0.vp8&#45;&gt;4&#45;1.vp8 -->
<g id="edge18" class="edge"><title>4&#45;0.vp8&#45;&gt;4&#45;1.vp8</title>
<path fill="none" stroke="black" d="M211.065,-18C249.624,-18 307.148,-18 348.685,-18"/>
<polygon fill="black" stroke="black" points="358.88,-18 348.88,-22.5001 353.88,-18 348.88,-18.0001 348.88,-18.0001 348.88,-18.0001 353.88,-18 348.88,-13.5001 358.88,-18 358.88,-18"/>
</g>
<!-- 2&#45;1.state -->
<g id="node12" class="node"><title>2&#45;1.state</title>
<polygon fill="#9acd32" stroke="black" points="570,-220 466,-220 466,-184 570,-184 570,-220"/>
<text text-anchor="middle" x="518" y="-198.2" font-family="SF Mono" font-size="16.00">2&#45;1.state</text>
</g>
<!-- 1&#45;0.state&#45;&gt;2&#45;1.state -->
<g id="edge21" class="edge"><title>1&#45;0.state&#45;&gt;2&#45;1.state</title>
<path fill="none" stroke="black" d="M337.037,-249.722C368.239,-245.283 408.787,-238.434 444,-229 450.082,-227.371 456.368,-225.44 462.582,-223.372"/>
<polygon fill="black" stroke="black" points="472.25,-220.032 464.267,-227.551 467.524,-221.665 462.798,-223.297 462.798,-223.297 462.798,-223.297 467.524,-221.665 461.328,-219.044 472.25,-220.032 472.25,-220.032"/>
</g>
<!-- 1&#45;0.state&#45;&gt; 2.vp8  -->
<g id="edge15" class="edge"><title>1&#45;0.state&#45;&gt; 2.vp8 </title>
<path fill="none" stroke="black" d="M324.445,-237.869C333.508,-233.594 343.279,-228.986 352.698,-224.544"/>
<polygon fill="black" stroke="black" points="361.961,-220.176 354.836,-228.511 357.439,-222.308 352.917,-224.441 352.917,-224.441 352.917,-224.441 357.439,-222.308 350.997,-220.371 361.961,-220.176 361.961,-220.176"/>
</g>
<!-- 2&#45;0.state&#45;&gt;3&#45;1.vp8 -->
<g id="edge17" class="edge"><title>2&#45;0.state&#45;&gt;3&#45;1.vp8</title>
<path fill="none" stroke="black" d="M330.925,-137.952C336.928,-135.54 343.12,-133.052 349.221,-130.601"/>
<polygon fill="black" stroke="black" points="358.693,-126.796 351.092,-134.699 354.054,-128.66 349.414,-130.524 349.414,-130.524 349.414,-130.524 354.054,-128.66 347.737,-126.348 358.693,-126.796 358.693,-126.796"/>
</g>
<!-- 3&#45;0.state&#45;&gt;4&#45;1.vp8 -->
<g id="edge19" class="edge"><title>3&#45;0.state&#45;&gt;4&#45;1.vp8</title>
<path fill="none" stroke="black" d="M330.925,-45.9516C336.928,-43.54 343.12,-41.0521 349.221,-38.601"/>
<polygon fill="black" stroke="black" points="358.693,-34.7957 351.092,-42.6993 354.054,-36.6597 349.414,-38.5236 349.414,-38.5236 349.414,-38.5236 354.054,-36.6597 347.737,-34.348 358.693,-34.7957 358.693,-34.7957"/>
</g>
<!-- 3&#45;1.state -->
<g id="node13" class="node"><title>3&#45;1.state</title>
<polygon fill="#9acd32" stroke="black" points="811,-128 707,-128 707,-92 811,-92 811,-128"/>
<text text-anchor="middle" x="759" y="-106.2" font-family="SF Mono" font-size="16.00">3&#45;1.state</text>
</g>
<!-- 2&#45;1.state&#45;&gt;3&#45;1.state -->
<g id="edge25" class="edge"><title>2&#45;1.state&#45;&gt;3&#45;1.state</title>
<path fill="none" stroke="black" d="M565.934,-183.934C604.905,-168.932 660.447,-147.552 701.786,-131.639"/>
<polygon fill="black" stroke="black" points="711.174,-128.025 703.458,-135.817 706.508,-129.821 701.841,-131.618 701.841,-131.618 701.841,-131.618 706.508,-129.821 700.225,-127.418 711.174,-128.025 711.174,-128.025"/>
</g>
<!-- 3.vp8 -->
<g id="node17" class="node"><title>3.vp8</title>
<path fill="gold" stroke="black" stroke-width="2" d="M673,-128C673,-128 604,-128 604,-128 598,-128 592,-122 592,-116 592,-116 592,-104 592,-104 592,-98 598,-92 604,-92 604,-92 673,-92 673,-92 679,-92 685,-98 685,-104 685,-104 685,-116 685,-116 685,-122 679,-128 673,-128"/>
<text text-anchor="middle" x="638.5" y="-106.2" font-family="SF Mono" font-size="16.00">3.vp8</text>
</g>
<!-- 2&#45;1.state&#45;&gt;3.vp8 -->
<g id="edge23" class="edge"><title>2&#45;1.state&#45;&gt;3.vp8</title>
<path fill="none" stroke="black" d="M542.412,-183.824C560.671,-169.648 586.203,-149.825 606.214,-134.29"/>
<polygon fill="black" stroke="black" points="614.137,-128.138 608.998,-137.826 610.187,-131.205 606.238,-134.271 606.238,-134.271 606.238,-134.271 610.187,-131.205 603.478,-130.716 614.137,-128.138 614.137,-128.138"/>
</g>
<!-- 4.vp8 -->
<g id="node18" class="node"><title>4.vp8</title>
<path fill="gold" stroke="black" stroke-width="2" d="M914,-36C914,-36 845,-36 845,-36 839,-36 833,-30 833,-24 833,-24 833,-12 833,-12 833,-6 839,-0 845,-0 845,-0 914,-0 914,-0 920,-0 926,-6 926,-12 926,-12 926,-24 926,-24 926,-30 920,-36 914,-36"/>
<text text-anchor="middle" x="879.5" y="-14.2" font-family="SF Mono" font-size="16.00">4.vp8</text>
</g>
<!-- 3&#45;1.state&#45;&gt;4.vp8 -->
<g id="edge27" class="edge"><title>3&#45;1.state&#45;&gt;4.vp8</title>
<path fill="none" stroke="black" d="M783.412,-91.8238C801.671,-77.648 827.203,-57.8254 847.214,-42.2897"/>
<polygon fill="black" stroke="black" points="855.137,-36.1385 849.998,-45.8255 851.187,-39.2047 847.238,-42.271 847.238,-42.271 847.238,-42.271 851.187,-39.2047 844.478,-38.7165 855.137,-36.1385 855.137,-36.1385"/>
</g>
<!--  2.vp8 &#45;&gt;2&#45;1.state -->
<g id="edge20" class="edge"><title> 2.vp8 &#45;&gt;2&#45;1.state</title>
<path fill="none" stroke="black" d="M444.161,-202C447.898,-202 451.73,-202 455.588,-202"/>
<polygon fill="black" stroke="black" points="465.811,-202 455.811,-206.5 460.811,-202 455.811,-202 455.811,-202 455.811,-202 460.811,-202 455.811,-197.5 465.811,-202 465.811,-202"/>
</g>
<!-- 3&#45;1.vp8&#45;&gt;3.vp8 -->
<g id="edge22" class="edge"><title>3&#45;1.vp8&#45;&gt;3.vp8</title>
<path fill="none" stroke="black" d="M444.243,-110C482.503,-110 539.444,-110 581.617,-110"/>
<polygon fill="black" stroke="black" points="591.729,-110 581.729,-114.5 586.729,-110 581.729,-110 581.729,-110 581.729,-110 586.729,-110 581.729,-105.5 591.729,-110 591.729,-110"/>
</g>
<!-- 4&#45;1.vp8&#45;&gt;4.vp8 -->
<g id="edge26" class="edge"><title>4&#45;1.vp8&#45;&gt;4.vp8</title>
<path fill="none" stroke="black" d="M444.325,-18C530.128,-18 726.089,-18 822.637,-18"/>
<polygon fill="black" stroke="black" points="832.785,-18 822.785,-22.5001 827.785,-18 822.785,-18.0001 822.785,-18.0001 822.785,-18.0001 827.785,-18 822.785,-13.5001 832.785,-18 832.785,-18"/>
</g>
<!-- 3.vp8&#45;&gt;3&#45;1.state -->
<g id="edge24" class="edge"><title>3.vp8&#45;&gt;3&#45;1.state</title>
<path fill="none" stroke="black" d="M685.315,-110C689.052,-110 692.864,-110 696.687,-110"/>
<polygon fill="black" stroke="black" points="706.791,-110 696.791,-114.5 701.791,-110 696.791,-110 696.791,-110 696.791,-110 701.791,-110 696.791,-105.5 706.791,-110 706.791,-110"/>
</g>
<!-- (infiles) -->
<g id="node19" class="node"><title>(infiles)</title>
<text text-anchor="middle" x="52" y="-306.2" font-family="SF Mono" font-size="16.00">(infiles)</text>
</g>
<!-- vpxenc -->
<g id="node20" class="node"><title>vpxenc</title>
<text text-anchor="middle" x="168.5" y="-306.2" font-family="SF Mono" font-size="16.00">vpxenc</text>
</g>
<!-- (infiles)&#45;&gt;vpxenc -->
<!-- xcdec -->
<g id="node21" class="node"><title>xcdec</title>
<text text-anchor="middle" x="285" y="-306.2" font-family="SF Mono" font-size="16.00">xcdec</text>
</g>
<!-- xcenc -->
<g id="node22" class="node"><title>xcenc</title>
<text text-anchor="middle" x="401.5" y="-306.2" font-family="SF Mono" font-size="16.00">xcenc</text>
</g>
<!-- xcdec&#45;&gt;xcenc -->
<!-- xcdec2 -->
<g id="node23" class="node"><title>xcdec2</title>
<text text-anchor="middle" x="518" y="-306.2" font-family="SF Mono" font-size="16.00">xcdec</text>
</g>
<!-- xcenc&#45;&gt;xcdec2 -->
<!-- rebase -->
<g id="node25" class="node"><title>rebase</title>
<text text-anchor="middle" x="638.5" y="-306.2" font-family="SF Mono" font-size="16.00">rebase</text>
</g>
<!-- xcdec2&#45;&gt;rebase -->
<!-- xcdec3 -->
<g id="node24" class="node"><title>xcdec3</title>
<text text-anchor="middle" x="759" y="-306.2" font-family="SF Mono" font-size="16.00">xcdec</text>
</g>
<!-- rebase2 -->
<g id="node26" class="node"><title>rebase2</title>
<text text-anchor="middle" x="879.5" y="-306.2" font-family="SF Mono" font-size="16.00">rebase</text>
</g>
<!-- xcdec3&#45;&gt;rebase2 -->
<!-- rebase&#45;&gt;xcdec3 -->
</g>
</svg>
