<?xml version="1.0" encoding="UTF-8" standalone="no"?>
<!DOCTYPE svg PUBLIC "-//W3C//DTD SVG 1.1//EN"
 "http://www.w3.org/Graphics/SVG/1.1/DTD/svg11.dtd">
<!-- Generated by graphviz version 2.38.0 (20140413.2041)
 -->
<!-- Title: STEP1 Pages: 1 -->
<svg width="233pt" height="209pt"
 viewBox="0.00 0.00 232.80 208.80" xmlns="http://www.w3.org/2000/svg" xmlns:xlink="http://www.w3.org/1999/xlink">
<g id="graph0" class="graph" transform="scale(1 1) rotate(0) translate(14.4 194.4)">
<title>STEP1</title>
<polygon fill="white" stroke="none" points="-14.4,14.4 -14.4,-194.4 218.4,-194.4 218.4,14.4 -14.4,14.4"/>
<!-- fib_4 -->
<g id="node1" class="node"><title>fib_4</title>
<path fill="gold" stroke="black" stroke-width="1.5" d="M131,-36C131,-36 73,-36 73,-36 67,-36 61,-30 61,-24 61,-24 61,-12 61,-12 61,-6 67,-0 73,-0 73,-0 131,-0 131,-0 137,-0 143,-6 143,-12 143,-12 143,-24 143,-24 143,-30 137,-36 131,-36"/>
<text text-anchor="middle" x="102" y="-13.6" font-family="SF Mono" font-size="18.00">fib(4)</text>
</g>
<!-- fib_3 -->
<!-- fib_3&#45;&gt;fib_4 -->
<!-- fib_2 -->
<!-- fib_2&#45;&gt;fib_4 -->
<!-- fib_2&#45;&gt;fib_3 -->
<!-- fib_1 -->
<!-- fib_1&#45;&gt;fib_3 -->
<!-- fib_1&#45;&gt;fib_2 -->
<!-- fib_0 -->
<!-- fib_0&#45;&gt;fib_2 -->
</g>
</svg>
