<?xml version="1.0" encoding="UTF-8" standalone="no"?>
<!DOCTYPE svg PUBLIC "-//W3C//DTD SVG 1.1//EN"
 "http://www.w3.org/Graphics/SVG/1.1/DTD/svg11.dtd">
<!-- Generated by graphviz version 2.38.0 (20140413.2041)
 -->
<!-- Title: STEP1 Pages: 1 -->
<svg width="233pt" height="209pt"
 viewBox="0.00 0.00 232.80 208.80" xmlns="http://www.w3.org/2000/svg" xmlns:xlink="http://www.w3.org/1999/xlink">
<g id="graph0" class="graph" transform="scale(1 1) rotate(0) translate(14.4 194.4)">
<title>STEP1</title>
<polygon fill="white" stroke="none" points="-14.4,14.4 -14.4,-194.4 218.4,-194.4 218.4,14.4 -14.4,14.4"/>
<!-- fib_4 -->
<g id="node1" class="node"><title>fib_4</title>
<path fill="gold" stroke="black" stroke-width="1.5" d="M117,-36C117,-36 87,-36 87,-36 81,-36 75,-30 75,-24 75,-24 75,-12 75,-12 75,-6 81,-0 87,-0 87,-0 117,-0 117,-0 123,-0 129,-6 129,-12 129,-12 129,-24 129,-24 129,-30 123,-36 117,-36"/>
<text text-anchor="middle" x="102" y="-13.6" font-family="SF Mono" font-size="18.00">+</text>
</g>
<!-- fib_3 -->
<g id="node2" class="node"><title>fib_3</title>
<polygon fill="none" stroke="black" points="189,-108 135,-108 135,-72 189,-72 189,-108"/>
<text text-anchor="middle" x="162" y="-85.6" font-family="SF Mono" font-size="18.00">+</text>
</g>
<!-- fib_3&#45;&gt;fib_4 -->
<g id="edge1" class="edge"><title>fib_3&#45;&gt;fib_4</title>
<path fill="none" stroke="black" d="M147.169,-71.6966C139.539,-62.796 130.134,-51.8232 121.885,-42.1989"/>
<polygon fill="black" stroke="black" points="116.661,-36.1043 124.601,-39.8355 119.264,-39.1414 121.867,-42.1784 121.867,-42.1784 121.867,-42.1784 119.264,-39.1414 119.134,-44.5213 116.661,-36.1043 116.661,-36.1043"/>
</g>
<!-- fib_2 -->
<g id="node3" class="node"><title>fib_2</title>
<polygon fill="none" stroke="black" points="84,-108 0,-108 0,-72 84,-72 84,-108"/>
<text text-anchor="middle" x="42" y="-85.6" font-family="SF Mono" font-size="18.00">fib(2)</text>
</g>
<!-- fib_2&#45;&gt;fib_4 -->
<g id="edge2" class="edge"><title>fib_2&#45;&gt;fib_4</title>
<path fill="none" stroke="black" d="M56.8315,-71.6966C64.4606,-62.796 73.8658,-51.8232 82.1153,-42.1989"/>
<polygon fill="black" stroke="black" points="87.3391,-36.1043 84.8661,-44.5213 84.736,-39.1414 82.1328,-42.1784 82.1328,-42.1784 82.1328,-42.1784 84.736,-39.1414 79.3994,-39.8355 87.3391,-36.1043 87.3391,-36.1043"/>
</g>
<!-- fib_2&#45;&gt;fib_3 -->
<g id="edge3" class="edge"><title>fib_2&#45;&gt;fib_3</title>
<path fill="none" stroke="black" d="M84.1875,-90C98.3317,-90 112.476,-90 126.62,-90"/>
<polygon fill="black" stroke="black" points="134.948,-90 126.948,-93.6001 130.948,-90 126.948,-90.0001 126.948,-90.0001 126.948,-90.0001 130.948,-90 126.948,-86.4001 134.948,-90 134.948,-90"/>
</g>
<!-- fib_1 -->
<g id="node4" class="node"><title>fib_1</title>
<polygon fill="none" stroke="black" points="204,-180 120,-180 120,-144 204,-144 204,-180"/>
<text text-anchor="middle" x="162" y="-157.6" font-family="SF Mono" font-size="18.00">fib(1)</text>
</g>
<!-- fib_1&#45;&gt;fib_3 -->
<g id="edge4" class="edge"><title>fib_1&#45;&gt;fib_3</title>
<path fill="none" stroke="black" d="M162,-143.697C162,-135.389 162,-125.277 162,-116.141"/>
<polygon fill="black" stroke="black" points="162,-108.104 165.6,-116.104 162,-112.104 162,-116.104 162,-116.104 162,-116.104 162,-112.104 158.4,-116.104 162,-108.104 162,-108.104"/>
</g>
<!-- fib_1&#45;&gt;fib_2 -->
<!-- fib_0 -->
<!-- fib_0&#45;&gt;fib_2 -->
</g>
</svg>
