<?xml version="1.0" encoding="UTF-8" standalone="no"?>
<!DOCTYPE svg PUBLIC "-//W3C//DTD SVG 1.1//EN"
 "http://www.w3.org/Graphics/SVG/1.1/DTD/svg11.dtd">
<!-- Generated by graphviz version 2.38.0 (20140413.2041)
 -->
<!-- Title: STEP1 Pages: 1 -->
<svg width="233pt" height="209pt"
 viewBox="0.00 0.00 202.80 208.80" xmlns="http://www.w3.org/2000/svg" xmlns:xlink="http://www.w3.org/1999/xlink">
<g id="graph0" class="graph" transform="scale(1 1) rotate(0) translate(14.4 194.4)">
<title>STEP1</title>
<polygon fill="white" stroke="none" points="-14.4,14.4 -14.4,-194.4 188.4,-194.4 188.4,14.4 -14.4,14.4"/>
<!-- fib_4 -->
<g id="node1" class="node"><title>fib_4</title>
<path fill="gold" stroke="black" stroke-width="1.5" d="M94,-36C94,-36 64,-36 64,-36 58,-36 52,-30 52,-24 52,-24 52,-12 52,-12 52,-6 58,-0 64,-0 64,-0 94,-0 94,-0 100,-0 106,-6 106,-12 106,-12 106,-24 106,-24 106,-30 100,-36 94,-36"/>
<text text-anchor="middle" x="79" y="-13.6" font-family="SF Mono" font-size="18.00">+</text>
</g>
<!-- fib_3 -->
<g id="node2" class="node"><title>fib_3</title>
<polygon fill="none" stroke="black" points="159,-108 105,-108 105,-72 159,-72 159,-108"/>
<text text-anchor="middle" x="132" y="-85.6" font-family="SF Mono" font-size="18.00">+</text>
</g>
<!-- fib_3&#45;&gt;fib_4 -->
<g id="edge1" class="edge"><title>fib_3&#45;&gt;fib_4</title>
<path fill="none" stroke="black" d="M118.899,-71.6966C112.288,-62.9655 104.168,-52.2405 96.9824,-42.7503"/>
<polygon fill="black" stroke="black" points="91.9504,-36.1043 99.6497,-40.3093 94.365,-39.2934 96.7796,-42.4824 96.7796,-42.4824 96.7796,-42.4824 94.365,-39.2934 93.9094,-44.6555 91.9504,-36.1043 91.9504,-36.1043"/>
</g>
<!-- fib_2 -->
<g id="node3" class="node"><title>fib_2</title>
<polygon fill="none" stroke="black" points="54,-108 0,-108 0,-72 54,-72 54,-108"/>
<text text-anchor="middle" x="27" y="-85.6" font-family="SF Mono" font-size="18.00">+</text>
</g>
<!-- fib_2&#45;&gt;fib_4 -->
<g id="edge2" class="edge"><title>fib_2&#45;&gt;fib_4</title>
<path fill="none" stroke="black" d="M39.8539,-71.6966C46.3399,-62.9655 54.3071,-52.2405 61.3569,-42.7503"/>
<polygon fill="black" stroke="black" points="66.2939,-36.1043 64.4132,-44.6731 63.9086,-39.3153 61.5233,-42.5263 61.5233,-42.5263 61.5233,-42.5263 63.9086,-39.3153 58.6334,-40.3795 66.2939,-36.1043 66.2939,-36.1043"/>
</g>
<!-- fib_2&#45;&gt;fib_3 -->
<g id="edge3" class="edge"><title>fib_2&#45;&gt;fib_3</title>
<path fill="none" stroke="black" d="M54.0703,-90C68.2358,-90 82.4013,-90 96.5668,-90"/>
<polygon fill="black" stroke="black" points="104.907,-90 96.9073,-93.6001 100.907,-90 96.9073,-90.0001 96.9073,-90.0001 96.9073,-90.0001 100.907,-90 96.9072,-86.4001 104.907,-90 104.907,-90"/>
</g>
<!-- fib_1 -->
<g id="node4" class="node"><title>fib_1</title>
<polygon fill="none" stroke="black" points="174,-180 90,-180 90,-144 174,-144 174,-180"/>
<text text-anchor="middle" x="132" y="-157.6" font-family="SF Mono" font-size="18.00">fib(1)</text>
</g>
<!-- fib_1&#45;&gt;fib_3 -->
<g id="edge4" class="edge"><title>fib_1&#45;&gt;fib_3</title>
<path fill="none" stroke="black" d="M132,-143.697C132,-135.389 132,-125.277 132,-116.141"/>
<polygon fill="black" stroke="black" points="132,-108.104 135.6,-116.104 132,-112.104 132,-116.104 132,-116.104 132,-116.104 132,-112.104 128.4,-116.104 132,-108.104 132,-108.104"/>
</g>
<!-- fib_1&#45;&gt;fib_2 -->
<g id="edge5" class="edge"><title>fib_1&#45;&gt;fib_2</title>
<path fill="none" stroke="black" d="M106.314,-143.876C92.204,-134.469 74.5615,-122.708 59.5008,-112.667"/>
<polygon fill="black" stroke="black" points="52.7846,-108.19 61.438,-109.632 56.1128,-110.409 59.441,-112.627 59.441,-112.627 59.441,-112.627 56.1128,-110.409 57.4441,-115.623 52.7846,-108.19 52.7846,-108.19"/>
</g>
<!-- fib_0 -->
<g id="node5" class="node"><title>fib_0</title>
<polygon fill="lightblue" stroke="none" points="54,-180 0,-180 0,-144 54,-144 54,-180"/>
<polyline fill="none" stroke="black" points="0,-144 54,-144 "/>
<text text-anchor="middle" x="27" y="-157.6" font-family="SF Mono" font-size="18.00">0</text>
</g>
<!-- fib_0&#45;&gt;fib_2 -->
<g id="edge6" class="edge"><title>fib_0&#45;&gt;fib_2</title>
<path fill="none" stroke="black" d="M27,-143.697C27,-135.389 27,-125.277 27,-116.141"/>
<polygon fill="black" stroke="black" points="27,-108.104 30.6001,-116.104 27,-112.104 27.0001,-116.104 27.0001,-116.104 27.0001,-116.104 27,-112.104 23.4001,-116.104 27,-108.104 27,-108.104"/>
</g>
</g>
</svg>
