<?xml version="1.0" encoding="UTF-8" standalone="no"?>
<!DOCTYPE svg PUBLIC "-//W3C//DTD SVG 1.1//EN"
 "http://www.w3.org/Graphics/SVG/1.1/DTD/svg11.dtd">
<!-- Generated by graphviz version 2.38.0 (20140413.2041)
 -->
<!-- Title: STEP1 Pages: 1 -->
<svg width="233pt" height="209pt"
 viewBox="0.00 0.00 172.80 208.80" xmlns="http://www.w3.org/2000/svg" xmlns:xlink="http://www.w3.org/1999/xlink">
<g id="graph0" class="graph" transform="scale(1 1) rotate(0) translate(14.4 194.4)">
<title>STEP1</title>
<polygon fill="white" stroke="none" points="-14.4,14.4 -14.4,-194.4 158.4,-194.4 158.4,14.4 -14.4,14.4"/>
<!-- fib_4 -->
<g id="node1" class="node"><title>fib_4</title>
<path fill="gold" stroke="black" stroke-width="1.5" d="M87,-36C87,-36 57,-36 57,-36 51,-36 45,-30 45,-24 45,-24 45,-12 45,-12 45,-6 51,-0 57,-0 57,-0 87,-0 87,-0 93,-0 99,-6 99,-12 99,-12 99,-24 99,-24 99,-30 93,-36 87,-36"/>
<text text-anchor="middle" x="72" y="-13.6" font-family="SF Mono" font-size="18.00">+</text>
</g>
<!-- fib_3 -->
<g id="node2" class="node"><title>fib_3</title>
<polygon fill="none" stroke="black" points="144,-108 90,-108 90,-72 144,-72 144,-108"/>
<text text-anchor="middle" x="117" y="-85.6" font-family="SF Mono" font-size="18.00">+</text>
</g>
<!-- fib_3&#45;&gt;fib_4 -->
<g id="edge1" class="edge"><title>fib_3&#45;&gt;fib_4</title>
<path fill="none" stroke="black" d="M105.876,-71.6966C100.318,-63.0503 93.5026,-52.4486 87.446,-43.027"/>
<polygon fill="black" stroke="black" points="82.9956,-36.1043 90.35,-40.887 85.1587,-39.4691 87.3217,-42.8338 87.3217,-42.8338 87.3217,-42.8338 85.1587,-39.4691 84.2935,-44.7805 82.9956,-36.1043 82.9956,-36.1043"/>
</g>
<!-- fib_2 -->
<g id="node3" class="node"><title>fib_2</title>
<polygon fill="none" stroke="black" points="54,-108 0,-108 0,-72 54,-72 54,-108"/>
<text text-anchor="middle" x="27" y="-85.6" font-family="SF Mono" font-size="18.00">+</text>
</g>
<!-- fib_2&#45;&gt;fib_4 -->
<g id="edge2" class="edge"><title>fib_2&#45;&gt;fib_4</title>
<path fill="none" stroke="black" d="M38.1236,-71.6966C43.682,-63.0503 50.4974,-52.4486 56.554,-43.027"/>
<polygon fill="black" stroke="black" points="61.0044,-36.1043 59.7065,-44.7805 58.8413,-39.4691 56.6783,-42.8338 56.6783,-42.8338 56.6783,-42.8338 58.8413,-39.4691 53.65,-40.887 61.0044,-36.1043 61.0044,-36.1043"/>
</g>
<!-- fib_2&#45;&gt;fib_3 -->
<g id="edge3" class="edge"><title>fib_2&#45;&gt;fib_3</title>
<path fill="none" stroke="black" d="M54.0703,-90C63.3231,-90 72.5759,-90 81.8287,-90"/>
<polygon fill="black" stroke="black" points="89.9599,-90 81.9599,-93.6001 85.9599,-90 81.9599,-90.0001 81.9599,-90.0001 81.9599,-90.0001 85.9599,-90 81.9599,-86.4001 89.9599,-90 89.9599,-90"/>
</g>
<!-- fib_1 -->
<g id="node4" class="node"><title>fib_1</title>
<polygon fill="lightblue" stroke="none" points="144,-180 90,-180 90,-144 144,-144 144,-180"/>
<polyline fill="none" stroke="black" points="90,-144 144,-144 "/>
<text text-anchor="middle" x="117" y="-157.6" font-family="SF Mono" font-size="18.00">1</text>
</g>
<!-- fib_1&#45;&gt;fib_3 -->
<g id="edge4" class="edge"><title>fib_1&#45;&gt;fib_3</title>
<path fill="none" stroke="black" d="M117,-143.697C117,-135.389 117,-125.277 117,-116.141"/>
<polygon fill="black" stroke="black" points="117,-108.104 120.6,-116.104 117,-112.104 117,-116.104 117,-116.104 117,-116.104 117,-112.104 113.4,-116.104 117,-108.104 117,-108.104"/>
</g>
<!-- fib_1&#45;&gt;fib_2 -->
<g id="edge5" class="edge"><title>fib_1&#45;&gt;fib_2</title>
<path fill="none" stroke="black" d="M94.7528,-143.697C82.8731,-134.457 68.1226,-122.984 55.4207,-113.105"/>
<polygon fill="black" stroke="black" points="48.9913,-108.104 57.5163,-110.174 52.1487,-110.56 55.3061,-113.016 55.3061,-113.016 55.3061,-113.016 52.1487,-110.56 53.0959,-115.858 48.9913,-108.104 48.9913,-108.104"/>
</g>
<!-- fib_0 -->
<g id="node5" class="node"><title>fib_0</title>
<polygon fill="lightblue" stroke="none" points="54,-180 0,-180 0,-144 54,-144 54,-180"/>
<polyline fill="none" stroke="black" points="0,-144 54,-144 "/>
<text text-anchor="middle" x="27" y="-157.6" font-family="SF Mono" font-size="18.00">0</text>
</g>
<!-- fib_0&#45;&gt;fib_2 -->
<g id="edge6" class="edge"><title>fib_0&#45;&gt;fib_2</title>
<path fill="none" stroke="black" d="M27,-143.697C27,-135.389 27,-125.277 27,-116.141"/>
<polygon fill="black" stroke="black" points="27,-108.104 30.6001,-116.104 27,-112.104 27.0001,-116.104 27.0001,-116.104 27.0001,-116.104 27,-112.104 23.4001,-116.104 27,-108.104 27,-108.104"/>
</g>
</g>
</svg>
