<?xml version="1.0" encoding="UTF-8" standalone="no"?>
<!DOCTYPE svg PUBLIC "-//W3C//DTD SVG 1.1//EN"
 "http://www.w3.org/Graphics/SVG/1.1/DTD/svg11.dtd">
<!-- Generated by graphviz version 2.38.0 (20140413.2041)
 -->
<!-- Title: STEP1 Pages: 1 -->
<svg width="233pt" height="209pt"
 viewBox="0.00 0.00 172.80 208.80" xmlns="http://www.w3.org/2000/svg" xmlns:xlink="http://www.w3.org/1999/xlink">
<g id="graph0" class="graph" transform="scale(1 1) rotate(0) translate(14.4 194.4)">
<title>STEP1</title>
<polygon fill="white" stroke="none" points="-14.4,14.4 -14.4,-194.4 158.4,-194.4 158.4,14.4 -14.4,14.4"/>
<!-- fib_4 -->
<g id="node1" class="node"><title>fib_4</title>
<path fill="gold" stroke="black" stroke-width="1.5" d="M87,-36C87,-36 57,-36 57,-36 51,-36 45,-30 45,-24 45,-24 45,-12 45,-12 45,-6 51,-0 57,-0 57,-0 87,-0 87,-0 93,-0 99,-6 99,-12 99,-12 99,-24 99,-24 99,-30 93,-36 87,-36"/>
<text text-anchor="middle" x="72" y="-13.6" font-family="SF Mono" font-size="18.00">+</text>
</g>
<!-- fib_3 -->
<g id="node2" class="node"><title>fib_3</title>
<polygon fill="lightblue" stroke="none" points="144,-108 90,-108 90,-72 144,-72 144,-108"/>
<polyline fill="none" stroke="black" points="90,-72 144,-72 "/>
<text text-anchor="middle" x="117" y="-85.6" font-family="SF Mono" font-size="18.00">2</text>
</g>
<!-- fib_3&#45;&gt;fib_4 -->
<g id="edge1" class="edge"><title>fib_3&#45;&gt;fib_4</title>
<path fill="none" stroke="black" d="M105.876,-71.6966C100.318,-63.0503 93.5026,-52.4486 87.446,-43.027"/>
<polygon fill="black" stroke="black" points="82.9956,-36.1043 90.35,-40.887 85.1587,-39.4691 87.3217,-42.8338 87.3217,-42.8338 87.3217,-42.8338 85.1587,-39.4691 84.2935,-44.7805 82.9956,-36.1043 82.9956,-36.1043"/>
</g>
<!-- fib_2 -->
<g id="node3" class="node"><title>fib_2</title>
<polygon fill="lightblue" stroke="none" points="54,-108 0,-108 0,-72 54,-72 54,-108"/>
<polyline fill="none" stroke="black" points="0,-72 54,-72 "/>
<text text-anchor="middle" x="27" y="-85.6" font-family="SF Mono" font-size="18.00">1</text>
</g>
<!-- fib_2&#45;&gt;fib_4 -->
<g id="edge2" class="edge"><title>fib_2&#45;&gt;fib_4</title>
<path fill="none" stroke="black" d="M38.1236,-71.6966C43.682,-63.0503 50.4974,-52.4486 56.554,-43.027"/>
<polygon fill="black" stroke="black" points="61.0044,-36.1043 59.7065,-44.7805 58.8413,-39.4691 56.6783,-42.8338 56.6783,-42.8338 56.6783,-42.8338 58.8413,-39.4691 53.65,-40.887 61.0044,-36.1043 61.0044,-36.1043"/>
</g>
<!-- fib_2&#45;&gt;fib_3 -->
<!-- fib_1 -->
<!-- fib_1&#45;&gt;fib_3 -->
<!-- fib_1&#45;&gt;fib_2 -->
<!-- fib_0 -->
<!-- fib_0&#45;&gt;fib_2 -->
</g>
</svg>
