<?xml version="1.0" encoding="UTF-8" standalone="no"?>
<!DOCTYPE svg PUBLIC "-//W3C//DTD SVG 1.1//EN"
 "http://www.w3.org/Graphics/SVG/1.1/DTD/svg11.dtd">
<!-- Generated by graphviz version 2.38.0 (20140413.2041)
 -->
<!-- Title: ExCamera Pages: 1 -->
<svg width="548pt" height="318pt"
 viewBox="0.00 0.00 548.00 318.00" xmlns="http://www.w3.org/2000/svg" xmlns:xlink="http://www.w3.org/1999/xlink">
<g id="graph0" class="graph" transform="scale(1 1) rotate(0) translate(4 314)">
<title>ExCamera</title>
<polygon fill="white" stroke="none" points="-4,4 -4,-314 544,-314 544,4 -4,4"/>
<!-- (infiles) -->
<g id="node1" class="node"><title>(infiles)</title>
<text text-anchor="middle" x="52" y="-288.2" font-family="SF Mono" font-size="16.00">(infiles)</text>
</g>
<!-- map -->
<g id="node2" class="node"><title>map</title>
<text text-anchor="middle" x="173.5" y="-288.2" font-family="SF Mono" font-size="16.00">map</text>
</g>
<!-- (infiles)&#45;&gt;map -->
<!-- 1.txt -->
<g id="node7" class="node"><title>1.txt</title>
<polygon fill="lightblue" stroke="none" points="90.5,-256 13.5,-256 13.5,-220 90.5,-220 90.5,-256"/>
<polyline fill="none" stroke="black" points="13.5,-220 90.5,-220 "/>
<text text-anchor="middle" x="52" y="-234.2" font-family="SF Mono" font-size="16.00">1.txt</text>
</g>
<!-- (infiles)&#45;&gt;1.txt -->
<!-- partition -->
<g id="node3" class="node"><title>partition</title>
<text text-anchor="middle" x="295" y="-288.2" font-family="SF Mono" font-size="16.00">partition</text>
</g>
<!-- map&#45;&gt;partition -->
<!-- reduce -->
<g id="node4" class="node"><title>reduce</title>
<text text-anchor="middle" x="406.5" y="-288.2" font-family="SF Mono" font-size="16.00">reduce</text>
</g>
<!-- partition&#45;&gt;reduce -->
<!-- cat -->
<g id="node5" class="node"><title>cat</title>
<text text-anchor="middle" x="503" y="-288.2" font-family="SF Mono" font-size="16.00">cat</text>
</g>
<!-- reduce&#45;&gt;cat -->
<!-- out -->
<g id="node6" class="node"><title>out</title>
<path fill="gold" stroke="black" stroke-width="2" d="M528,-148C528,-148 478,-148 478,-148 472,-148 466,-142 466,-136 466,-136 466,-124 466,-124 466,-118 472,-112 478,-112 478,-112 528,-112 528,-112 534,-112 540,-118 540,-124 540,-124 540,-136 540,-136 540,-142 534,-148 528,-148"/>
<text text-anchor="middle" x="503" y="-126.2" font-family="SF Mono" font-size="16.00">out</text>
</g>
<!-- 2.txt -->
<g id="node8" class="node"><title>2.txt</title>
<polygon fill="lightblue" stroke="none" points="90.5,-202 13.5,-202 13.5,-166 90.5,-166 90.5,-202"/>
<polyline fill="none" stroke="black" points="13.5,-166 90.5,-166 "/>
<text text-anchor="middle" x="52" y="-180.2" font-family="SF Mono" font-size="16.00">2.txt</text>
</g>
<!-- 1.txt&#45;&gt;2.txt -->
<!-- 1.mapped -->
<g id="node12" class="node"><title>1.mapped</title>
<polygon fill="none" stroke="black" points="221,-256 126,-256 126,-220 221,-220 221,-256"/>
<text text-anchor="middle" x="173.5" y="-234.2" font-family="SF Mono" font-size="16.00">1.mapped</text>
</g>
<!-- 1.txt&#45;&gt;1.mapped -->
<g id="edge11" class="edge"><title>1.txt&#45;&gt;1.mapped</title>
<path fill="none" stroke="black" d="M90.8105,-238C98.6858,-238 107.152,-238 115.544,-238"/>
<polygon fill="black" stroke="black" points="125.699,-238 115.699,-242.5 120.699,-238 115.699,-238 115.699,-238 115.699,-238 120.699,-238 115.699,-233.5 125.699,-238 125.699,-238"/>
</g>
<!-- 3.txt -->
<g id="node9" class="node"><title>3.txt</title>
<polygon fill="lightblue" stroke="none" points="90.5,-148 13.5,-148 13.5,-112 90.5,-112 90.5,-148"/>
<polyline fill="none" stroke="black" points="13.5,-112 90.5,-112 "/>
<text text-anchor="middle" x="52" y="-126.2" font-family="SF Mono" font-size="16.00">3.txt</text>
</g>
<!-- 2.txt&#45;&gt;3.txt -->
<!-- 2.mapped -->
<g id="node13" class="node"><title>2.mapped</title>
<polygon fill="none" stroke="black" points="221,-202 126,-202 126,-166 221,-166 221,-202"/>
<text text-anchor="middle" x="173.5" y="-180.2" font-family="SF Mono" font-size="16.00">2.mapped</text>
</g>
<!-- 2.txt&#45;&gt;2.mapped -->
<g id="edge12" class="edge"><title>2.txt&#45;&gt;2.mapped</title>
<path fill="none" stroke="black" d="M90.8105,-184C98.6858,-184 107.152,-184 115.544,-184"/>
<polygon fill="black" stroke="black" points="125.699,-184 115.699,-188.5 120.699,-184 115.699,-184 115.699,-184 115.699,-184 120.699,-184 115.699,-179.5 125.699,-184 125.699,-184"/>
</g>
<!-- ⋮ -->
<g id="node10" class="node"><title>⋮</title>
<text text-anchor="middle" x="52" y="-68.1" font-family="SF Mono" font-size="23.00">⋮</text>
</g>
<!-- 3.txt&#45;&gt;⋮ -->
<!-- 3.txt&#45;&gt;⋮ -->
<!-- 3.mapped -->
<g id="node14" class="node"><title>3.mapped</title>
<polygon fill="none" stroke="black" points="221,-148 126,-148 126,-112 221,-112 221,-148"/>
<text text-anchor="middle" x="173.5" y="-126.2" font-family="SF Mono" font-size="16.00">3.mapped</text>
</g>
<!-- 3.txt&#45;&gt;3.mapped -->
<g id="edge13" class="edge"><title>3.txt&#45;&gt;3.mapped</title>
<path fill="none" stroke="black" d="M90.8105,-130C98.6858,-130 107.152,-130 115.544,-130"/>
<polygon fill="black" stroke="black" points="125.699,-130 115.699,-134.5 120.699,-130 115.699,-130 115.699,-130 115.699,-130 120.699,-130 115.699,-125.5 125.699,-130 125.699,-130"/>
</g>
<!-- N.txt -->
<g id="node11" class="node"><title>N.txt</title>
<polygon fill="lightblue" stroke="none" points="90.5,-36 13.5,-36 13.5,-0 90.5,-0 90.5,-36"/>
<polyline fill="none" stroke="black" points="13.5,-0 90.5,-0 "/>
<text text-anchor="middle" x="52" y="-14.2" font-family="SF Mono" font-size="16.00">N.txt</text>
</g>
<!-- ⋮&#45;&gt;N.txt -->
<!-- N.mapped -->
<g id="node15" class="node"><title>N.mapped</title>
<polygon fill="none" stroke="black" points="221,-36 126,-36 126,-0 221,-0 221,-36"/>
<text text-anchor="middle" x="173.5" y="-14.2" font-family="SF Mono" font-size="16.00">N.mapped</text>
</g>
<!-- N.txt&#45;&gt;N.mapped -->
<g id="edge14" class="edge"><title>N.txt&#45;&gt;N.mapped</title>
<path fill="none" stroke="black" d="M90.8105,-18C98.6858,-18 107.152,-18 115.544,-18"/>
<polygon fill="black" stroke="black" points="125.699,-18 115.699,-22.5001 120.699,-18 115.699,-18.0001 115.699,-18.0001 115.699,-18.0001 120.699,-18 115.699,-13.5001 125.699,-18 125.699,-18"/>
</g>
<!-- P1 -->
<g id="node16" class="node"><title>P1</title>
<polygon fill="none" stroke="black" points="322,-202 268,-202 268,-166 322,-166 322,-202"/>
<text text-anchor="middle" x="295" y="-180.2" font-family="SF Mono" font-size="16.00">P1</text>
</g>
<!-- 1.mapped&#45;&gt;P1 -->
<g id="edge15" class="edge"><title>1.mapped&#45;&gt;P1</title>
<path fill="none" stroke="black" d="M214.624,-219.869C228.838,-213.446 244.718,-206.27 258.518,-200.034"/>
<polygon fill="black" stroke="black" points="267.693,-195.888 260.433,-204.106 263.137,-197.947 258.58,-200.006 258.58,-200.006 258.58,-200.006 263.137,-197.947 256.727,-195.905 267.693,-195.888 267.693,-195.888"/>
</g>
<!-- P2 -->
<g id="node17" class="node"><title>P2</title>
<polygon fill="none" stroke="black" points="322,-148 268,-148 268,-112 322,-112 322,-148"/>
<text text-anchor="middle" x="295" y="-126.2" font-family="SF Mono" font-size="16.00">P2</text>
</g>
<!-- 1.mapped&#45;&gt;P2 -->
<g id="edge19" class="edge"><title>1.mapped&#45;&gt;P2</title>
<path fill="none" stroke="black" d="M211.347,-219.843C214.875,-217.188 218.182,-214.24 221,-211 238.006,-191.445 225.614,-176.218 243,-157 247.411,-152.124 252.912,-147.974 258.654,-144.498"/>
<polygon fill="black" stroke="black" points="267.754,-139.583 261.094,-148.295 263.354,-141.959 258.955,-144.335 258.955,-144.335 258.955,-144.335 263.354,-141.959 256.817,-140.376 267.754,-139.583 267.754,-139.583"/>
</g>
<!-- P3 -->
<g id="node18" class="node"><title>P3</title>
<polygon fill="none" stroke="black" points="322,-94 268,-94 268,-58 322,-58 322,-94"/>
<text text-anchor="middle" x="295" y="-72.2" font-family="SF Mono" font-size="16.00">P3</text>
</g>
<!-- 1.mapped&#45;&gt;P3 -->
<g id="edge23" class="edge"><title>1.mapped&#45;&gt;P3</title>
<path fill="none" stroke="black" d="M212.422,-219.982C215.658,-217.323 218.604,-214.336 221,-211 249.576,-171.213 213.651,-142.22 243,-103 247.154,-97.4491 252.789,-92.9262 258.801,-89.2812"/>
<polygon fill="black" stroke="black" points="267.749,-84.5516 261.011,-93.2029 263.329,-86.888 258.908,-89.2244 258.908,-89.2244 258.908,-89.2244 263.329,-86.888 256.805,-85.2459 267.749,-84.5516 267.749,-84.5516"/>
</g>
<!-- 2.mapped&#45;&gt;P1 -->
<g id="edge16" class="edge"><title>2.mapped&#45;&gt;P1</title>
<path fill="none" stroke="black" d="M221.044,-184C233.186,-184 246.095,-184 257.624,-184"/>
<polygon fill="black" stroke="black" points="267.764,-184 257.764,-188.5 262.764,-184 257.764,-184 257.764,-184 257.764,-184 262.764,-184 257.764,-179.5 267.764,-184 267.764,-184"/>
</g>
<!-- 2.mapped&#45;&gt;P2 -->
<g id="edge20" class="edge"><title>2.mapped&#45;&gt;P2</title>
<path fill="none" stroke="black" d="M214.624,-165.869C232.118,-157.963 252.136,-148.917 267.693,-141.888"/>
</g>
<!-- 2.mapped&#45;&gt;P3 -->
<g id="edge24" class="edge"><title>2.mapped&#45;&gt;P3</title>
<path fill="none" stroke="black" d="M211.347,-165.843C214.875,-163.188 218.182,-160.24 221,-157 238.006,-137.445 225.614,-122.218 243,-103 247.411,-98.1245 252.912,-93.9743 258.654,-90.498"/>
<polygon fill="black" stroke="black" points="267.754,-85.5826 261.094,-94.2945 263.354,-87.9589 258.955,-90.3352 258.955,-90.3352 258.955,-90.3352 263.354,-87.9589 256.817,-86.3759 267.754,-85.5826 267.754,-85.5826"/>
</g>
<!-- 3.mapped&#45;&gt;P1 -->
<g id="edge17" class="edge"><title>3.mapped&#45;&gt;P1</title>
<path fill="none" stroke="black" d="M214.624,-148.131C232.118,-156.037 252.136,-165.083 267.693,-172.112"/>
</g>
<!-- 3.mapped&#45;&gt;P2 -->
<g id="edge21" class="edge"><title>3.mapped&#45;&gt;P2</title>
<path fill="none" stroke="black" d="M221.044,-130C233.186,-130 246.095,-130 257.624,-130"/>
<polygon fill="black" stroke="black" points="267.764,-130 257.764,-134.5 262.764,-130 257.764,-130 257.764,-130 257.764,-130 262.764,-130 257.764,-125.5 267.764,-130 267.764,-130"/>
</g>
<!-- 3.mapped&#45;&gt;P3 -->
<g id="edge25" class="edge"><title>3.mapped&#45;&gt;P3</title>
<path fill="none" stroke="black" d="M214.624,-111.869C232.118,-103.963 252.136,-94.9175 267.693,-87.8876"/>
</g>
<!-- N.mapped&#45;&gt;P1 -->
<g id="edge18" class="edge"><title>N.mapped&#45;&gt;P1</title>
<path fill="none" stroke="black" d="M185.276,-36.2564C195.121,-53.2593 209.807,-79.4527 221,-103 232.126,-126.406 225.614,-137.782 243,-157 247.411,-161.876 252.912,-166.026 258.654,-169.502"/>
<polygon fill="black" stroke="black" points="267.754,-174.417 256.817,-173.624 263.354,-172.041 258.955,-169.665 258.955,-169.665 258.955,-169.665 263.354,-172.041 261.094,-165.705 267.754,-174.417 267.754,-174.417"/>
</g>
<!-- N.mapped&#45;&gt;P2 -->
<g id="edge22" class="edge"><title>N.mapped&#45;&gt;P2</title>
<path fill="none" stroke="black" d="M185.844,-36.0627C198.175,-54.6147 219.314,-83.4638 243,-103 247.753,-106.92 253.166,-110.515 258.647,-113.715"/>
<polygon fill="black" stroke="black" points="267.831,-118.715 256.897,-117.886 263.44,-116.324 259.048,-113.934 259.048,-113.934 259.048,-113.934 263.44,-116.324 261.2,-109.981 267.831,-118.715 267.831,-118.715"/>
</g>
<!-- N.mapped&#45;&gt;P3 -->
<g id="edge26" class="edge"><title>N.mapped&#45;&gt;P3</title>
<path fill="none" stroke="black" d="M211.655,-36.0336C226.606,-43.2897 243.769,-51.6201 258.544,-58.7911"/>
<polygon fill="black" stroke="black" points="267.861,-63.3131 256.899,-62.995 263.362,-61.1299 258.864,-58.9466 258.864,-58.9466 258.864,-58.9466 263.362,-61.1299 260.829,-54.8983 267.861,-63.3131 267.861,-63.3131"/>
</g>
<!-- R1 -->
<g id="node19" class="node"><title>R1</title>
<polygon fill="none" stroke="black" points="433.5,-202 379.5,-202 379.5,-166 433.5,-166 433.5,-202"/>
<text text-anchor="middle" x="406.5" y="-180.2" font-family="SF Mono" font-size="16.00">R1</text>
</g>
<!-- P1&#45;&gt;R1 -->
<g id="edge27" class="edge"><title>P1&#45;&gt;R1</title>
<path fill="none" stroke="black" d="M322.228,-184C336.314,-184 353.894,-184 369.266,-184"/>
<polygon fill="black" stroke="black" points="379.486,-184 369.486,-188.5 374.486,-184 369.486,-184 369.486,-184 369.486,-184 374.486,-184 369.486,-179.5 379.486,-184 379.486,-184"/>
</g>
<!-- R2 -->
<g id="node20" class="node"><title>R2</title>
<polygon fill="none" stroke="black" points="433.5,-148 379.5,-148 379.5,-112 433.5,-112 433.5,-148"/>
<text text-anchor="middle" x="406.5" y="-126.2" font-family="SF Mono" font-size="16.00">R2</text>
</g>
<!-- P2&#45;&gt;R2 -->
<g id="edge28" class="edge"><title>P2&#45;&gt;R2</title>
<path fill="none" stroke="black" d="M322.228,-130C336.314,-130 353.894,-130 369.266,-130"/>
<polygon fill="black" stroke="black" points="379.486,-130 369.486,-134.5 374.486,-130 369.486,-130 369.486,-130 369.486,-130 374.486,-130 369.486,-125.5 379.486,-130 379.486,-130"/>
</g>
<!-- R3 -->
<g id="node21" class="node"><title>R3</title>
<polygon fill="none" stroke="black" points="433.5,-94 379.5,-94 379.5,-58 433.5,-58 433.5,-94"/>
<text text-anchor="middle" x="406.5" y="-72.2" font-family="SF Mono" font-size="16.00">R3</text>
</g>
<!-- P3&#45;&gt;R3 -->
<g id="edge29" class="edge"><title>P3&#45;&gt;R3</title>
<path fill="none" stroke="black" d="M322.228,-76C336.314,-76 353.894,-76 369.266,-76"/>
<polygon fill="black" stroke="black" points="379.486,-76 369.486,-80.5001 374.486,-76 369.486,-76.0001 369.486,-76.0001 369.486,-76.0001 374.486,-76 369.486,-71.5001 379.486,-76 379.486,-76"/>
</g>
<!-- R1&#45;&gt;out -->
<g id="edge30" class="edge"><title>R1&#45;&gt;out</title>
<path fill="none" stroke="black" d="M433.573,-169.101C442.184,-164.181 451.979,-158.584 461.412,-153.193"/>
<polygon fill="black" stroke="black" points="470.295,-148.117 463.845,-156.986 465.953,-150.598 461.612,-153.079 461.612,-153.079 461.612,-153.079 465.953,-150.598 459.38,-149.172 470.295,-148.117 470.295,-148.117"/>
</g>
<!-- R2&#45;&gt;out -->
<g id="edge31" class="edge"><title>R2&#45;&gt;out</title>
<path fill="none" stroke="black" d="M433.573,-130C440.408,-130 447.99,-130 455.544,-130"/>
<polygon fill="black" stroke="black" points="465.756,-130 455.756,-134.5 460.756,-130 455.756,-130 455.756,-130 455.756,-130 460.756,-130 455.756,-125.5 465.756,-130 465.756,-130"/>
</g>
<!-- R3&#45;&gt;out -->
<g id="edge32" class="edge"><title>R3&#45;&gt;out</title>
<path fill="none" stroke="black" d="M433.573,-90.8987C442.184,-95.8194 451.979,-101.416 461.412,-106.807"/>
<polygon fill="black" stroke="black" points="470.295,-111.883 459.38,-110.828 465.953,-109.402 461.612,-106.921 461.612,-106.921 461.612,-106.921 465.953,-109.402 463.845,-103.014 470.295,-111.883 470.295,-111.883"/>
</g>
</g>
</svg>
